<svg width="1440" height="54" viewBox="0 0 1440 54" fill="none" xmlns="http://www.w3.org/2000/svg">
<rect width="1440" height="54" fill="white"/>
<path d="M161.36 34V19.88H164.5V34H161.36ZM170.1 34V19.88H173.26V34H170.1ZM163.24 28.1V25.38H171.14V28.1H163.24ZM181.649 34.22C180.489 34.22 179.463 33.9733 178.569 33.48C177.689 32.9867 176.996 32.3067 176.489 31.44C175.996 30.56 175.749 29.56 175.749 28.44V19.88H178.909V28.62C178.909 29.18 179.029 29.6667 179.269 30.08C179.509 30.4933 179.836 30.8133 180.249 31.04C180.676 31.2533 181.143 31.36 181.649 31.36C182.183 31.36 182.649 31.2533 183.049 31.04C183.449 30.8133 183.763 30.5 183.989 30.1C184.229 29.6867 184.349 29.2 184.349 28.64V19.88H187.509V28.46C187.509 29.58 187.263 30.5733 186.769 31.44C186.276 32.3067 185.589 32.9867 184.709 33.48C183.829 33.9733 182.809 34.22 181.649 34.22ZM190.012 34V19.88H192.212L193.152 22.7V34H190.012ZM199.752 34L191.432 23.34L192.212 19.88L200.532 30.54L199.752 34ZM199.752 34L198.912 31.18V19.88H202.052V34H199.752ZM211.438 34.22C210.411 34.22 209.445 34.0333 208.538 33.66C207.645 33.2867 206.865 32.7733 206.198 32.12C205.531 31.4533 205.005 30.68 204.618 29.8C204.245 28.9067 204.058 27.9467 204.058 26.92C204.058 25.8933 204.251 24.94 204.638 24.06C205.025 23.18 205.558 22.4133 206.238 21.76C206.931 21.0933 207.738 20.58 208.658 20.22C209.578 19.8467 210.565 19.66 211.618 19.66C212.831 19.66 213.931 19.88 214.918 20.32C215.918 20.76 216.745 21.3667 217.398 22.14L215.258 24.28C214.805 23.6933 214.271 23.2533 213.658 22.96C213.045 22.6667 212.351 22.52 211.578 22.52C210.751 22.52 210.011 22.7067 209.358 23.08C208.705 23.44 208.191 23.9533 207.818 24.62C207.458 25.2733 207.278 26.04 207.278 26.92C207.278 27.8 207.458 28.5733 207.818 29.24C208.178 29.9067 208.671 30.4267 209.298 30.8C209.925 31.1733 210.645 31.36 211.458 31.36C212.285 31.36 212.985 31.2067 213.558 30.9C214.145 30.58 214.591 30.1267 214.898 29.54C215.218 28.94 215.378 28.2133 215.378 27.36L217.458 28.76L211.158 28.66V26H218.578V26.46C218.578 28.1533 218.271 29.58 217.658 30.74C217.058 31.8867 216.218 32.7533 215.138 33.34C214.071 33.9267 212.838 34.22 211.438 34.22ZM220.481 34V19.88H223.621V34H220.481ZM222.881 34V31.28H230.621V34H222.881ZM222.881 28.1V25.48H229.921V28.1H222.881ZM222.881 22.58V19.88H230.521V22.58H222.881ZM235.186 28.18V25.86H238.166C238.792 25.86 239.272 25.7 239.606 25.38C239.952 25.06 240.126 24.6267 240.126 24.08C240.126 23.5733 239.959 23.1533 239.626 22.82C239.292 22.4867 238.812 22.32 238.186 22.32H235.186V19.88H238.546C239.479 19.88 240.299 20.06 241.006 20.42C241.712 20.7667 242.266 21.2533 242.666 21.88C243.066 22.5067 243.266 23.2267 243.266 24.04C243.266 24.8667 243.066 25.5933 242.666 26.22C242.266 26.8333 241.706 27.3133 240.986 27.66C240.266 28.0067 239.419 28.18 238.446 28.18H235.186ZM232.786 34V19.88H235.926V34H232.786ZM240.466 34L236.066 27.92L238.946 27.14L244.186 34H240.466ZM245.559 34V19.88H248.699V34H245.559ZM247.959 28.46V25.76H255.019V28.46H247.959ZM247.959 22.58V19.88H255.339V22.58H247.959ZM263.94 34.24C262.873 34.24 261.887 34.0533 260.98 33.68C260.087 33.3067 259.3 32.7867 258.62 32.12C257.94 31.4533 257.413 30.68 257.04 29.8C256.667 28.9067 256.48 27.9467 256.48 26.92C256.48 25.88 256.667 24.92 257.04 24.04C257.413 23.16 257.933 22.3933 258.6 21.74C259.267 21.0733 260.047 20.56 260.94 20.2C261.847 19.8267 262.833 19.64 263.9 19.64C264.953 19.64 265.927 19.8267 266.82 20.2C267.727 20.56 268.513 21.0733 269.18 21.74C269.86 22.3933 270.387 23.1667 270.76 24.06C271.133 24.94 271.32 25.9 271.32 26.94C271.32 27.9667 271.133 28.9267 270.76 29.82C270.387 30.7 269.867 31.4733 269.2 32.14C268.533 32.7933 267.747 33.3067 266.84 33.68C265.947 34.0533 264.98 34.24 263.94 34.24ZM263.9 31.38C264.74 31.38 265.473 31.1933 266.1 30.82C266.74 30.4467 267.233 29.9267 267.58 29.26C267.927 28.58 268.1 27.8 268.1 26.92C268.1 26.2533 268 25.6533 267.8 25.12C267.6 24.5733 267.313 24.1067 266.94 23.72C266.567 23.32 266.12 23.02 265.6 22.82C265.093 22.6067 264.527 22.5 263.9 22.5C263.06 22.5 262.32 22.6867 261.68 23.06C261.053 23.42 260.567 23.9333 260.22 24.6C259.873 25.2533 259.7 26.0267 259.7 26.92C259.7 27.5867 259.8 28.1933 260 28.74C260.2 29.2867 260.48 29.76 260.84 30.16C261.213 30.5467 261.66 30.8467 262.18 31.06C262.7 31.2733 263.273 31.38 263.9 31.38ZM280.248 34.24C279.182 34.24 278.195 34.0533 277.288 33.68C276.395 33.3067 275.608 32.7867 274.928 32.12C274.248 31.4533 273.722 30.68 273.348 29.8C272.975 28.9067 272.788 27.9467 272.788 26.92C272.788 25.88 272.975 24.92 273.348 24.04C273.722 23.16 274.242 22.3933 274.908 21.74C275.575 21.0733 276.355 20.56 277.248 20.2C278.155 19.8267 279.142 19.64 280.208 19.64C281.262 19.64 282.235 19.8267 283.128 20.2C284.035 20.56 284.822 21.0733 285.488 21.74C286.168 22.3933 286.695 23.1667 287.068 24.06C287.442 24.94 287.628 25.9 287.628 26.94C287.628 27.9667 287.442 28.9267 287.068 29.82C286.695 30.7 286.175 31.4733 285.508 32.14C284.842 32.7933 284.055 33.3067 283.148 33.68C282.255 34.0533 281.288 34.24 280.248 34.24ZM280.208 31.38C281.048 31.38 281.782 31.1933 282.408 30.82C283.048 30.4467 283.542 29.9267 283.888 29.26C284.235 28.58 284.408 27.8 284.408 26.92C284.408 26.2533 284.308 25.6533 284.108 25.12C283.908 24.5733 283.622 24.1067 283.248 23.72C282.875 23.32 282.428 23.02 281.908 22.82C281.402 22.6067 280.835 22.5 280.208 22.5C279.368 22.5 278.628 22.6867 277.988 23.06C277.362 23.42 276.875 23.9333 276.528 24.6C276.182 25.2533 276.008 26.0267 276.008 26.92C276.008 27.5867 276.108 28.1933 276.308 28.74C276.508 29.2867 276.788 29.76 277.148 30.16C277.522 30.5467 277.968 30.8467 278.488 31.06C279.008 31.2733 279.582 31.38 280.208 31.38ZM291.742 34V31.24H295.242C296.095 31.24 296.842 31.0733 297.482 30.74C298.122 30.3933 298.615 29.8933 298.962 29.24C299.308 28.5867 299.482 27.8133 299.482 26.92C299.482 26.0267 299.302 25.26 298.942 24.62C298.595 23.98 298.102 23.4867 297.462 23.14C296.835 22.7933 296.095 22.62 295.242 22.62H291.642V19.88H295.282C296.348 19.88 297.328 20.0533 298.222 20.4C299.128 20.7333 299.915 21.22 300.582 21.86C301.262 22.4867 301.782 23.2333 302.142 24.1C302.515 24.9533 302.702 25.9 302.702 26.94C302.702 27.9667 302.515 28.9133 302.142 29.78C301.782 30.6467 301.268 31.3933 300.602 32.02C299.935 32.6467 299.148 33.1333 298.242 33.48C297.348 33.8267 296.375 34 295.322 34H291.742ZM289.622 34V19.88H292.762V34H289.622Z" fill="black"/>
<path d="M486 34.2C484.907 34.2 483.973 34 483.2 33.6C482.427 33.2 481.74 32.62 481.14 31.86L482.42 30.58C482.86 31.1933 483.367 31.66 483.94 31.98C484.513 32.2867 485.22 32.44 486.06 32.44C486.887 32.44 487.547 32.26 488.04 31.9C488.547 31.54 488.8 31.0467 488.8 30.42C488.8 29.9 488.68 29.48 488.44 29.16C488.2 28.84 487.873 28.58 487.46 28.38C487.06 28.1667 486.62 27.98 486.14 27.82C485.66 27.6467 485.18 27.4667 484.7 27.28C484.22 27.08 483.78 26.84 483.38 26.56C482.98 26.2667 482.653 25.8867 482.4 25.42C482.16 24.9533 482.04 24.3667 482.04 23.66C482.04 22.8733 482.227 22.2067 482.6 21.66C482.987 21.1 483.507 20.6733 484.16 20.38C484.827 20.0733 485.573 19.92 486.4 19.92C487.307 19.92 488.12 20.1 488.84 20.46C489.56 20.8067 490.147 21.2667 490.6 21.84L489.32 23.12C488.907 22.64 488.46 22.28 487.98 22.04C487.513 21.8 486.973 21.68 486.36 21.68C485.613 21.68 485.02 21.8467 484.58 22.18C484.14 22.5 483.92 22.9533 483.92 23.54C483.92 24.0067 484.04 24.3867 484.28 24.68C484.533 24.96 484.86 25.2 485.26 25.4C485.66 25.6 486.1 25.7867 486.58 25.96C487.073 26.12 487.56 26.3 488.04 26.5C488.52 26.7 488.96 26.9533 489.36 27.26C489.76 27.5667 490.08 27.9667 490.32 28.46C490.573 28.94 490.7 29.5467 490.7 30.28C490.7 31.5067 490.273 32.4667 489.42 33.16C488.58 33.8533 487.44 34.2 486 34.2ZM497.117 34.2C496.184 34.2 495.344 33.98 494.597 33.54C493.85 33.1 493.257 32.5067 492.817 31.76C492.377 31 492.157 30.1533 492.157 29.22C492.157 28.3 492.377 27.4733 492.817 26.74C493.257 25.9933 493.85 25.4 494.597 24.96C495.344 24.52 496.184 24.3 497.117 24.3C498.037 24.3 498.87 24.52 499.617 24.96C500.377 25.3867 500.977 25.9733 501.417 26.72C501.857 27.4667 502.077 28.3 502.077 29.22C502.077 30.1533 501.857 31 501.417 31.76C500.977 32.5067 500.377 33.1 499.617 33.54C498.87 33.98 498.037 34.2 497.117 34.2ZM497.117 32.46C497.717 32.46 498.25 32.32 498.717 32.04C499.184 31.76 499.55 31.38 499.817 30.9C500.084 30.4067 500.217 29.8467 500.217 29.22C500.217 28.6067 500.077 28.06 499.797 27.58C499.53 27.1 499.164 26.7267 498.697 26.46C498.244 26.18 497.717 26.04 497.117 26.04C496.517 26.04 495.984 26.18 495.517 26.46C495.05 26.7267 494.684 27.1 494.417 27.58C494.15 28.06 494.017 28.6067 494.017 29.22C494.017 29.8467 494.15 30.4067 494.417 30.9C494.684 31.38 495.05 31.76 495.517 32.04C495.984 32.32 496.517 32.46 497.117 32.46ZM509.105 34.2C508.385 34.2 507.732 34.0533 507.145 33.76C506.572 33.4533 506.112 33.0333 505.765 32.5C505.418 31.9667 505.225 31.36 505.185 30.68V27.82C505.225 27.1267 505.418 26.52 505.765 26C506.125 25.4667 506.592 25.0533 507.165 24.76C507.752 24.4533 508.398 24.3 509.105 24.3C509.972 24.3 510.752 24.52 511.445 24.96C512.152 25.4 512.705 25.9933 513.105 26.74C513.505 27.4867 513.705 28.3267 513.705 29.26C513.705 30.1933 513.505 31.0333 513.105 31.78C512.705 32.5267 512.152 33.12 511.445 33.56C510.752 33.9867 509.972 34.2 509.105 34.2ZM508.805 32.5C509.405 32.5 509.932 32.36 510.385 32.08C510.838 31.8 511.198 31.42 511.465 30.94C511.732 30.4467 511.865 29.88 511.865 29.24C511.865 28.6133 511.732 28.0533 511.465 27.56C511.198 27.0667 510.838 26.6867 510.385 26.42C509.932 26.14 509.412 26 508.825 26C508.225 26 507.698 26.14 507.245 26.42C506.792 26.6867 506.438 27.0667 506.185 27.56C505.932 28.0533 505.805 28.62 505.805 29.26C505.805 29.8867 505.925 30.4467 506.165 30.94C506.418 31.42 506.772 31.8 507.225 32.08C507.692 32.36 508.218 32.5 508.805 32.5ZM504.105 34V19.72H505.905V26.82L505.565 29.12L505.905 31.44V34H504.105ZM515.746 34V24.5H517.546V34H515.746ZM517.546 28.58L516.866 28.28C516.866 27.0667 517.146 26.1 517.706 25.38C518.266 24.66 519.072 24.3 520.126 24.3C520.606 24.3 521.039 24.3867 521.426 24.56C521.812 24.72 522.172 24.9933 522.506 25.38L521.326 26.6C521.126 26.3867 520.906 26.2333 520.666 26.14C520.426 26.0467 520.146 26 519.826 26C519.159 26 518.612 26.2133 518.186 26.64C517.759 27.0667 517.546 27.7133 517.546 28.58ZM527.861 34.2C526.914 34.2 526.061 33.9867 525.301 33.56C524.541 33.12 523.941 32.5267 523.501 31.78C523.061 31.0333 522.841 30.1867 522.841 29.24C522.841 28.3067 523.054 27.4667 523.481 26.72C523.921 25.9733 524.507 25.3867 525.241 24.96C525.987 24.52 526.821 24.3 527.741 24.3C528.621 24.3 529.394 24.5 530.061 24.9C530.741 25.3 531.267 25.8533 531.641 26.56C532.027 27.2667 532.221 28.0667 532.221 28.96C532.221 29.0933 532.214 29.24 532.201 29.4C532.187 29.5467 532.161 29.72 532.121 29.92H524.101V28.42H531.161L530.501 29C530.501 28.36 530.387 27.82 530.161 27.38C529.934 26.9267 529.614 26.58 529.201 26.34C528.787 26.0867 528.287 25.96 527.701 25.96C527.087 25.96 526.547 26.0933 526.081 26.36C525.614 26.6267 525.254 27 525.001 27.48C524.747 27.96 524.621 28.5267 524.621 29.18C524.621 29.8467 524.754 30.4333 525.021 30.94C525.287 31.4333 525.667 31.82 526.161 32.1C526.654 32.3667 527.221 32.5 527.861 32.5C528.394 32.5 528.881 32.4067 529.321 32.22C529.774 32.0333 530.161 31.7533 530.481 31.38L531.641 32.56C531.187 33.0933 530.627 33.5 529.961 33.78C529.307 34.06 528.607 34.2 527.861 34.2ZM538.663 34V20.12H539.983L540.543 22.3V34H538.663ZM548.263 34L539.743 22.62L539.983 20.12L548.523 31.48L548.263 34ZM548.263 34L547.703 31.94V20.12H549.583V34H548.263ZM556.883 34.2C555.949 34.2 555.109 33.98 554.363 33.54C553.616 33.1 553.023 32.5067 552.583 31.76C552.143 31 551.923 30.1533 551.923 29.22C551.923 28.3 552.143 27.4733 552.583 26.74C553.023 25.9933 553.616 25.4 554.363 24.96C555.109 24.52 555.949 24.3 556.883 24.3C557.803 24.3 558.636 24.52 559.383 24.96C560.143 25.3867 560.743 25.9733 561.183 26.72C561.623 27.4667 561.843 28.3 561.843 29.22C561.843 30.1533 561.623 31 561.183 31.76C560.743 32.5067 560.143 33.1 559.383 33.54C558.636 33.98 557.803 34.2 556.883 34.2ZM556.883 32.46C557.483 32.46 558.016 32.32 558.483 32.04C558.949 31.76 559.316 31.38 559.583 30.9C559.849 30.4067 559.983 29.8467 559.983 29.22C559.983 28.6067 559.843 28.06 559.563 27.58C559.296 27.1 558.929 26.7267 558.463 26.46C558.009 26.18 557.483 26.04 556.883 26.04C556.283 26.04 555.749 26.18 555.283 26.46C554.816 26.7267 554.449 27.1 554.183 27.58C553.916 28.06 553.783 28.6067 553.783 29.22C553.783 29.8467 553.916 30.4067 554.183 30.9C554.449 31.38 554.816 31.76 555.283 32.04C555.749 32.32 556.283 32.46 556.883 32.46ZM566.891 34.2C566.357 34.2 565.851 34.1333 565.371 34C564.904 33.8533 564.471 33.6533 564.071 33.4C563.671 33.1333 563.324 32.82 563.031 32.46L564.191 31.3C564.537 31.7267 564.937 32.0467 565.391 32.26C565.844 32.46 566.351 32.56 566.911 32.56C567.471 32.56 567.904 32.4667 568.211 32.28C568.517 32.08 568.671 31.8067 568.671 31.46C568.671 31.1133 568.544 30.8467 568.291 30.66C568.051 30.46 567.737 30.3 567.351 30.18C566.964 30.0467 566.551 29.92 566.111 29.8C565.684 29.6667 565.277 29.5 564.891 29.3C564.504 29.1 564.184 28.8267 563.931 28.48C563.691 28.1333 563.571 27.6733 563.571 27.1C563.571 26.5267 563.711 26.0333 563.991 25.62C564.271 25.1933 564.657 24.8667 565.151 24.64C565.657 24.4133 566.264 24.3 566.971 24.3C567.717 24.3 568.377 24.4333 568.951 24.7C569.537 24.9533 570.017 25.34 570.391 25.86L569.231 27.02C568.964 26.6733 568.631 26.4067 568.231 26.22C567.844 26.0333 567.404 25.94 566.911 25.94C566.391 25.94 565.991 26.0333 565.711 26.22C565.444 26.3933 565.311 26.64 565.311 26.96C565.311 27.28 565.431 27.5267 565.671 27.7C565.911 27.8733 566.224 28.02 566.611 28.14C567.011 28.26 567.424 28.3867 567.851 28.52C568.277 28.64 568.684 28.8067 569.071 29.02C569.457 29.2333 569.771 29.52 570.011 29.88C570.264 30.24 570.391 30.7133 570.391 31.3C570.391 32.1933 570.071 32.9 569.431 33.42C568.804 33.94 567.957 34.2 566.891 34.2ZM576.746 34.2C575.813 34.2 574.973 33.98 574.226 33.54C573.479 33.1 572.886 32.5067 572.446 31.76C572.006 31 571.786 30.1533 571.786 29.22C571.786 28.3 572.006 27.4733 572.446 26.74C572.886 25.9933 573.479 25.4 574.226 24.96C574.973 24.52 575.813 24.3 576.746 24.3C577.666 24.3 578.499 24.52 579.246 24.96C580.006 25.3867 580.606 25.9733 581.046 26.72C581.486 27.4667 581.706 28.3 581.706 29.22C581.706 30.1533 581.486 31 581.046 31.76C580.606 32.5067 580.006 33.1 579.246 33.54C578.499 33.98 577.666 34.2 576.746 34.2ZM576.746 32.46C577.346 32.46 577.879 32.32 578.346 32.04C578.813 31.76 579.179 31.38 579.446 30.9C579.713 30.4067 579.846 29.8467 579.846 29.22C579.846 28.6067 579.706 28.06 579.426 27.58C579.159 27.1 578.793 26.7267 578.326 26.46C577.873 26.18 577.346 26.04 576.746 26.04C576.146 26.04 575.613 26.18 575.146 26.46C574.679 26.7267 574.313 27.1 574.046 27.58C573.779 28.06 573.646 28.6067 573.646 29.22C573.646 29.8467 573.779 30.4067 574.046 30.9C574.313 31.38 574.679 31.76 575.146 32.04C575.613 32.32 576.146 32.46 576.746 32.46ZM584.901 34V20.52H586.701V34H584.901ZM582.561 26.14V24.5H589.041V26.14H582.561ZM590.804 34V24.5H592.604V34H590.804ZM592.604 28.58L591.924 28.28C591.924 27.0667 592.204 26.1 592.764 25.38C593.324 24.66 594.131 24.3 595.184 24.3C595.664 24.3 596.098 24.3867 596.484 24.56C596.871 24.72 597.231 24.9933 597.564 25.38L596.384 26.6C596.184 26.3867 595.964 26.2333 595.724 26.14C595.484 26.0467 595.204 26 594.884 26C594.218 26 593.671 26.2133 593.244 26.64C592.818 27.0667 592.604 27.7133 592.604 28.58ZM602.859 34.2C601.926 34.2 601.086 33.98 600.339 33.54C599.593 33.1 598.999 32.5067 598.559 31.76C598.119 31 597.899 30.1533 597.899 29.22C597.899 28.3 598.119 27.4733 598.559 26.74C598.999 25.9933 599.593 25.4 600.339 24.96C601.086 24.52 601.926 24.3 602.859 24.3C603.779 24.3 604.613 24.52 605.359 24.96C606.119 25.3867 606.719 25.9733 607.159 26.72C607.599 27.4667 607.819 28.3 607.819 29.22C607.819 30.1533 607.599 31 607.159 31.76C606.719 32.5067 606.119 33.1 605.359 33.54C604.613 33.98 603.779 34.2 602.859 34.2ZM602.859 32.46C603.459 32.46 603.993 32.32 604.459 32.04C604.926 31.76 605.293 31.38 605.559 30.9C605.826 30.4067 605.959 29.8467 605.959 29.22C605.959 28.6067 605.819 28.06 605.539 27.58C605.273 27.1 604.906 26.7267 604.439 26.46C603.986 26.18 603.459 26.04 602.859 26.04C602.259 26.04 601.726 26.18 601.259 26.46C600.793 26.7267 600.426 27.1 600.159 27.58C599.893 28.06 599.759 28.6067 599.759 29.22C599.759 29.8467 599.893 30.4067 600.159 30.9C600.426 31.38 600.793 31.76 601.259 32.04C601.726 32.32 602.259 32.46 602.859 32.46ZM612.867 34.2C612.334 34.2 611.827 34.1333 611.347 34C610.881 33.8533 610.447 33.6533 610.047 33.4C609.647 33.1333 609.301 32.82 609.007 32.46L610.167 31.3C610.514 31.7267 610.914 32.0467 611.367 32.26C611.821 32.46 612.327 32.56 612.887 32.56C613.447 32.56 613.881 32.4667 614.187 32.28C614.494 32.08 614.647 31.8067 614.647 31.46C614.647 31.1133 614.521 30.8467 614.267 30.66C614.027 30.46 613.714 30.3 613.327 30.18C612.941 30.0467 612.527 29.92 612.087 29.8C611.661 29.6667 611.254 29.5 610.867 29.3C610.481 29.1 610.161 28.8267 609.907 28.48C609.667 28.1333 609.547 27.6733 609.547 27.1C609.547 26.5267 609.687 26.0333 609.967 25.62C610.247 25.1933 610.634 24.8667 611.127 24.64C611.634 24.4133 612.241 24.3 612.947 24.3C613.694 24.3 614.354 24.4333 614.927 24.7C615.514 24.9533 615.994 25.34 616.367 25.86L615.207 27.02C614.941 26.6733 614.607 26.4067 614.207 26.22C613.821 26.0333 613.381 25.94 612.887 25.94C612.367 25.94 611.967 26.0333 611.687 26.22C611.421 26.3933 611.287 26.64 611.287 26.96C611.287 27.28 611.407 27.5267 611.647 27.7C611.887 27.8733 612.201 28.02 612.587 28.14C612.987 28.26 613.401 28.3867 613.827 28.52C614.254 28.64 614.661 28.8067 615.047 29.02C615.434 29.2333 615.747 29.52 615.987 29.88C616.241 30.24 616.367 30.7133 616.367 31.3C616.367 32.1933 616.047 32.9 615.407 33.42C614.781 33.94 613.934 34.2 612.867 34.2Z" fill="black"/>
<path d="M701.38 34V32.28H705.24C706.267 32.28 707.167 32.06 707.94 31.62C708.713 31.1667 709.313 30.5467 709.74 29.76C710.18 28.9733 710.4 28.0667 710.4 27.04C710.4 26.0267 710.18 25.1267 709.74 24.34C709.3 23.5533 708.693 22.94 707.92 22.5C707.147 22.06 706.253 21.84 705.24 21.84H701.4V20.12H705.28C706.293 20.12 707.227 20.2933 708.08 20.64C708.947 20.9867 709.693 21.4733 710.32 22.1C710.96 22.7267 711.453 23.46 711.8 24.3C712.16 25.14 712.34 26.06 712.34 27.06C712.34 28.0467 712.16 28.9667 711.8 29.82C711.453 30.66 710.967 31.3933 710.34 32.02C709.713 32.6467 708.967 33.1333 708.1 33.48C707.247 33.8267 706.32 34 705.32 34H701.38ZM700.14 34V20.12H702.02V34H700.14ZM718.965 34.2C718.031 34.2 717.191 33.98 716.445 33.54C715.698 33.1 715.105 32.5067 714.665 31.76C714.225 31 714.005 30.1533 714.005 29.22C714.005 28.3 714.225 27.4733 714.665 26.74C715.105 25.9933 715.698 25.4 716.445 24.96C717.191 24.52 718.031 24.3 718.965 24.3C719.885 24.3 720.718 24.52 721.465 24.96C722.225 25.3867 722.825 25.9733 723.265 26.72C723.705 27.4667 723.925 28.3 723.925 29.22C723.925 30.1533 723.705 31 723.265 31.76C722.825 32.5067 722.225 33.1 721.465 33.54C720.718 33.98 719.885 34.2 718.965 34.2ZM718.965 32.46C719.565 32.46 720.098 32.32 720.565 32.04C721.031 31.76 721.398 31.38 721.665 30.9C721.931 30.4067 722.065 29.8467 722.065 29.22C722.065 28.6067 721.925 28.06 721.645 27.58C721.378 27.1 721.011 26.7267 720.545 26.46C720.091 26.18 719.565 26.04 718.965 26.04C718.365 26.04 717.831 26.18 717.365 26.46C716.898 26.7267 716.531 27.1 716.265 27.58C715.998 28.06 715.865 28.6067 715.865 29.22C715.865 29.8467 715.998 30.4067 716.265 30.9C716.531 31.38 716.898 31.76 717.365 32.04C717.831 32.32 718.365 32.46 718.965 32.46ZM732.673 34V28.46C732.673 27.74 732.446 27.1467 731.993 26.68C731.539 26.2133 730.953 25.98 730.233 25.98C729.753 25.98 729.326 26.0867 728.953 26.3C728.579 26.5133 728.286 26.8067 728.073 27.18C727.859 27.5533 727.753 27.98 727.753 28.46L727.013 28.04C727.013 27.32 727.173 26.68 727.493 26.12C727.813 25.56 728.259 25.12 728.833 24.8C729.406 24.4667 730.053 24.3 730.773 24.3C731.493 24.3 732.126 24.48 732.673 24.84C733.233 25.2 733.673 25.6733 733.993 26.26C734.313 26.8333 734.473 27.4467 734.473 28.1V34H732.673ZM725.953 34V24.5H727.753V34H725.953ZM740.95 34.2C740.083 34.2 739.297 33.9867 738.59 33.56C737.883 33.12 737.323 32.5267 736.91 31.78C736.51 31.0333 736.31 30.1933 736.31 29.26C736.31 28.3267 736.51 27.4867 736.91 26.74C737.323 25.9933 737.877 25.4 738.57 24.96C739.277 24.52 740.07 24.3 740.95 24.3C741.67 24.3 742.31 24.4533 742.87 24.76C743.443 25.0533 743.903 25.4667 744.25 26C744.597 26.52 744.79 27.1267 744.83 27.82V30.68C744.79 31.36 744.597 31.9667 744.25 32.5C743.917 33.0333 743.463 33.4533 742.89 33.76C742.33 34.0533 741.683 34.2 740.95 34.2ZM741.25 32.5C742.143 32.5 742.863 32.2 743.41 31.6C743.957 30.9867 744.23 30.2067 744.23 29.26C744.23 28.6067 744.103 28.04 743.85 27.56C743.61 27.0667 743.263 26.6867 742.81 26.42C742.357 26.14 741.83 26 741.23 26C740.63 26 740.097 26.14 739.63 26.42C739.177 26.7 738.817 27.0867 738.55 27.58C738.297 28.06 738.17 28.6133 738.17 29.24C738.17 29.88 738.297 30.4467 738.55 30.94C738.817 31.42 739.183 31.8 739.65 32.08C740.117 32.36 740.65 32.5 741.25 32.5ZM744.11 34V31.44L744.45 29.12L744.11 26.82V24.5H745.93V34H744.11ZM748.55 34V24.5H750.35V34H748.55ZM750.35 28.58L749.67 28.28C749.67 27.0667 749.95 26.1 750.51 25.38C751.07 24.66 751.877 24.3 752.93 24.3C753.41 24.3 753.844 24.3867 754.23 24.56C754.617 24.72 754.977 24.9933 755.31 25.38L754.13 26.6C753.93 26.3867 753.71 26.2333 753.47 26.14C753.23 26.0467 752.95 26 752.63 26C751.964 26 751.417 26.2133 750.99 26.64C750.564 27.0667 750.35 27.7133 750.35 28.58Z" fill="black"/>
<path d="M845.44 34.2C844.44 34.2 843.513 34.02 842.66 33.66C841.807 33.2867 841.06 32.7733 840.42 32.12C839.793 31.4667 839.307 30.7067 838.96 29.84C838.613 28.9733 838.44 28.0467 838.44 27.06C838.44 26.06 838.613 25.1267 838.96 24.26C839.307 23.3933 839.793 22.64 840.42 22C841.06 21.3467 841.8 20.84 842.64 20.48C843.493 20.1067 844.42 19.92 845.42 19.92C846.513 19.92 847.473 20.1067 848.3 20.48C849.127 20.8533 849.86 21.36 850.5 22L849.2 23.3C848.76 22.8067 848.22 22.42 847.58 22.14C846.953 21.86 846.233 21.72 845.42 21.72C844.687 21.72 844.013 21.8533 843.4 22.12C842.787 22.3733 842.253 22.74 841.8 23.22C841.347 23.7 840.993 24.2667 840.74 24.92C840.5 25.5733 840.38 26.2867 840.38 27.06C840.38 27.8333 840.5 28.5467 840.74 29.2C840.993 29.8533 841.347 30.42 841.8 30.9C842.253 31.38 842.787 31.7533 843.4 32.02C844.013 32.2733 844.687 32.4 845.42 32.4C846.287 32.4 847.04 32.26 847.68 31.98C848.32 31.6867 848.86 31.2933 849.3 30.8L850.6 32.08C849.96 32.7467 849.207 33.2667 848.34 33.64C847.487 34.0133 846.52 34.2 845.44 34.2ZM856.598 34.2C855.664 34.2 854.824 33.98 854.078 33.54C853.331 33.1 852.738 32.5067 852.298 31.76C851.858 31 851.638 30.1533 851.638 29.22C851.638 28.3 851.858 27.4733 852.298 26.74C852.738 25.9933 853.331 25.4 854.078 24.96C854.824 24.52 855.664 24.3 856.598 24.3C857.518 24.3 858.351 24.52 859.098 24.96C859.858 25.3867 860.458 25.9733 860.898 26.72C861.338 27.4667 861.558 28.3 861.558 29.22C861.558 30.1533 861.338 31 860.898 31.76C860.458 32.5067 859.858 33.1 859.098 33.54C858.351 33.98 857.518 34.2 856.598 34.2ZM856.598 32.46C857.198 32.46 857.731 32.32 858.198 32.04C858.664 31.76 859.031 31.38 859.298 30.9C859.564 30.4067 859.698 29.8467 859.698 29.22C859.698 28.6067 859.558 28.06 859.278 27.58C859.011 27.1 858.644 26.7267 858.178 26.46C857.724 26.18 857.198 26.04 856.598 26.04C855.998 26.04 855.464 26.18 854.998 26.46C854.531 26.7267 854.164 27.1 853.898 27.58C853.631 28.06 853.498 28.6067 853.498 29.22C853.498 29.8467 853.631 30.4067 853.898 30.9C854.164 31.38 854.531 31.76 854.998 32.04C855.464 32.32 855.998 32.46 856.598 32.46ZM870.306 34V28.46C870.306 27.74 870.079 27.1467 869.626 26.68C869.172 26.2133 868.586 25.98 867.866 25.98C867.386 25.98 866.959 26.0867 866.586 26.3C866.212 26.5133 865.919 26.8067 865.706 27.18C865.492 27.5533 865.386 27.98 865.386 28.46L864.646 28.04C864.646 27.32 864.806 26.68 865.126 26.12C865.446 25.56 865.892 25.12 866.466 24.8C867.039 24.4667 867.686 24.3 868.406 24.3C869.126 24.3 869.759 24.48 870.306 24.84C870.866 25.2 871.306 25.6733 871.626 26.26C871.946 26.8333 872.106 27.4467 872.106 28.1V34H870.306ZM863.586 34V24.5H865.386V34H863.586ZM875.885 34V20.52H877.685V34H875.885ZM873.545 26.14V24.5H880.025V26.14H873.545ZM885.536 34.2C884.669 34.2 883.882 33.9867 883.176 33.56C882.469 33.12 881.909 32.5267 881.496 31.78C881.096 31.0333 880.896 30.1933 880.896 29.26C880.896 28.3267 881.096 27.4867 881.496 26.74C881.909 25.9933 882.462 25.4 883.156 24.96C883.862 24.52 884.656 24.3 885.536 24.3C886.256 24.3 886.896 24.4533 887.456 24.76C888.029 25.0533 888.489 25.4667 888.836 26C889.182 26.52 889.376 27.1267 889.416 27.82V30.68C889.376 31.36 889.182 31.9667 888.836 32.5C888.502 33.0333 888.049 33.4533 887.476 33.76C886.916 34.0533 886.269 34.2 885.536 34.2ZM885.836 32.5C886.729 32.5 887.449 32.2 887.996 31.6C888.542 30.9867 888.816 30.2067 888.816 29.26C888.816 28.6067 888.689 28.04 888.436 27.56C888.196 27.0667 887.849 26.6867 887.396 26.42C886.942 26.14 886.416 26 885.816 26C885.216 26 884.682 26.14 884.216 26.42C883.762 26.7 883.402 27.0867 883.136 27.58C882.882 28.06 882.756 28.6133 882.756 29.24C882.756 29.88 882.882 30.4467 883.136 30.94C883.402 31.42 883.769 31.8 884.236 32.08C884.702 32.36 885.236 32.5 885.836 32.5ZM888.696 34V31.44L889.036 29.12L888.696 26.82V24.5H890.516V34H888.696ZM884.596 23.08L883.776 22.26L886.376 19.04L887.796 20.46L884.596 23.08ZM897.476 34.2C896.543 34.2 895.696 33.98 894.936 33.54C894.19 33.1 893.596 32.5067 893.156 31.76C892.73 31 892.516 30.16 892.516 29.24C892.516 28.3067 892.73 27.4667 893.156 26.72C893.596 25.9733 894.19 25.3867 894.936 24.96C895.696 24.52 896.543 24.3 897.476 24.3C898.21 24.3 898.89 24.44 899.516 24.72C900.143 24.9867 900.683 25.38 901.136 25.9L899.936 27.1C899.643 26.7533 899.283 26.4933 898.856 26.32C898.443 26.1333 897.983 26.04 897.476 26.04C896.876 26.04 896.343 26.18 895.876 26.46C895.41 26.7267 895.043 27.1 894.776 27.58C894.51 28.06 894.376 28.6133 894.376 29.24C894.376 29.8667 894.51 30.42 894.776 30.9C895.043 31.38 895.41 31.76 895.876 32.04C896.343 32.32 896.876 32.46 897.476 32.46C897.983 32.46 898.443 32.3733 898.856 32.2C899.283 32.0133 899.65 31.7467 899.956 31.4L901.136 32.6C900.696 33.1067 900.156 33.5 899.516 33.78C898.89 34.06 898.21 34.2 897.476 34.2ZM904.264 34V20.52H906.064V34H904.264ZM901.924 26.14V24.5H908.404V26.14H901.924ZM914.275 34.2C913.328 34.2 912.475 33.9867 911.715 33.56C910.955 33.12 910.355 32.5267 909.915 31.78C909.475 31.0333 909.255 30.1867 909.255 29.24C909.255 28.3067 909.468 27.4667 909.895 26.72C910.335 25.9733 910.921 25.3867 911.655 24.96C912.401 24.52 913.235 24.3 914.155 24.3C915.035 24.3 915.808 24.5 916.475 24.9C917.155 25.3 917.681 25.8533 918.055 26.56C918.441 27.2667 918.635 28.0667 918.635 28.96C918.635 29.0933 918.628 29.24 918.615 29.4C918.601 29.5467 918.575 29.72 918.535 29.92H910.515V28.42H917.575L916.915 29C916.915 28.36 916.801 27.82 916.575 27.38C916.348 26.9267 916.028 26.58 915.615 26.34C915.201 26.0867 914.701 25.96 914.115 25.96C913.501 25.96 912.961 26.0933 912.495 26.36C912.028 26.6267 911.668 27 911.415 27.48C911.161 27.96 911.035 28.5267 911.035 29.18C911.035 29.8467 911.168 30.4333 911.435 30.94C911.701 31.4333 912.081 31.82 912.575 32.1C913.068 32.3667 913.635 32.5 914.275 32.5C914.808 32.5 915.295 32.4067 915.735 32.22C916.188 32.0333 916.575 31.7533 916.895 31.38L918.055 32.56C917.601 33.0933 917.041 33.5 916.375 33.78C915.721 34.06 915.021 34.2 914.275 34.2ZM927.317 34V28.46C927.317 27.74 927.091 27.1467 926.637 26.68C926.184 26.2133 925.597 25.98 924.877 25.98C924.397 25.98 923.971 26.0867 923.597 26.3C923.224 26.5133 922.931 26.8067 922.717 27.18C922.504 27.5533 922.397 27.98 922.397 28.46L921.657 28.04C921.657 27.32 921.817 26.68 922.137 26.12C922.457 25.56 922.904 25.12 923.477 24.8C924.051 24.4667 924.697 24.3 925.417 24.3C926.137 24.3 926.771 24.48 927.317 24.84C927.877 25.2 928.317 25.6733 928.637 26.26C928.957 26.8333 929.117 27.4467 929.117 28.1V34H927.317ZM920.597 34V24.5H922.397V34H920.597ZM935.894 34.2C934.961 34.2 934.121 33.98 933.374 33.54C932.628 33.1 932.034 32.5067 931.594 31.76C931.154 31 930.934 30.1533 930.934 29.22C930.934 28.3 931.154 27.4733 931.594 26.74C932.034 25.9933 932.628 25.4 933.374 24.96C934.121 24.52 934.961 24.3 935.894 24.3C936.814 24.3 937.648 24.52 938.394 24.96C939.154 25.3867 939.754 25.9733 940.194 26.72C940.634 27.4667 940.854 28.3 940.854 29.22C940.854 30.1533 940.634 31 940.194 31.76C939.754 32.5067 939.154 33.1 938.394 33.54C937.648 33.98 936.814 34.2 935.894 34.2ZM935.894 32.46C936.494 32.46 937.028 32.32 937.494 32.04C937.961 31.76 938.328 31.38 938.594 30.9C938.861 30.4067 938.994 29.8467 938.994 29.22C938.994 28.6067 938.854 28.06 938.574 27.58C938.308 27.1 937.941 26.7267 937.474 26.46C937.021 26.18 936.494 26.04 935.894 26.04C935.294 26.04 934.761 26.18 934.294 26.46C933.828 26.7267 933.461 27.1 933.194 27.58C932.928 28.06 932.794 28.6067 932.794 29.22C932.794 29.8467 932.928 30.4067 933.194 30.9C933.461 31.38 933.828 31.76 934.294 32.04C934.761 32.32 935.294 32.46 935.894 32.46ZM945.903 34.2C945.369 34.2 944.863 34.1333 944.383 34C943.916 33.8533 943.483 33.6533 943.083 33.4C942.683 33.1333 942.336 32.82 942.043 32.46L943.203 31.3C943.549 31.7267 943.949 32.0467 944.403 32.26C944.856 32.46 945.363 32.56 945.923 32.56C946.483 32.56 946.916 32.4667 947.223 32.28C947.529 32.08 947.683 31.8067 947.683 31.46C947.683 31.1133 947.556 30.8467 947.303 30.66C947.063 30.46 946.749 30.3 946.363 30.18C945.976 30.0467 945.563 29.92 945.123 29.8C944.696 29.6667 944.289 29.5 943.903 29.3C943.516 29.1 943.196 28.8267 942.943 28.48C942.703 28.1333 942.583 27.6733 942.583 27.1C942.583 26.5267 942.723 26.0333 943.003 25.62C943.283 25.1933 943.669 24.8667 944.163 24.64C944.669 24.4133 945.276 24.3 945.983 24.3C946.729 24.3 947.389 24.4333 947.963 24.7C948.549 24.9533 949.029 25.34 949.403 25.86L948.243 27.02C947.976 26.6733 947.643 26.4067 947.243 26.22C946.856 26.0333 946.416 25.94 945.923 25.94C945.403 25.94 945.003 26.0333 944.723 26.22C944.456 26.3933 944.323 26.64 944.323 26.96C944.323 27.28 944.443 27.5267 944.683 27.7C944.923 27.8733 945.236 28.02 945.623 28.14C946.023 28.26 946.436 28.3867 946.863 28.52C947.289 28.64 947.696 28.8067 948.083 29.02C948.469 29.2333 948.783 29.52 949.023 29.88C949.276 30.24 949.403 30.7133 949.403 31.3C949.403 32.1933 949.083 32.9 948.443 33.42C947.816 33.94 946.969 34.2 945.903 34.2Z" fill="black"/>
<path d="M1053.14 33V19.12H1055.02V33H1053.14ZM1062.1 33V19.12H1063.98V33H1062.1ZM1054.42 26.68V24.96H1062.56V26.68H1054.42ZM1071.28 33.2C1070.35 33.2 1069.51 32.98 1068.76 32.54C1068.01 32.1 1067.42 31.5067 1066.98 30.76C1066.54 30 1066.32 29.1533 1066.32 28.22C1066.32 27.3 1066.54 26.4733 1066.98 25.74C1067.42 24.9933 1068.01 24.4 1068.76 23.96C1069.51 23.52 1070.35 23.3 1071.28 23.3C1072.2 23.3 1073.03 23.52 1073.78 23.96C1074.54 24.3867 1075.14 24.9733 1075.58 25.72C1076.02 26.4667 1076.24 27.3 1076.24 28.22C1076.24 29.1533 1076.02 30 1075.58 30.76C1075.14 31.5067 1074.54 32.1 1073.78 32.54C1073.03 32.98 1072.2 33.2 1071.28 33.2ZM1071.28 31.46C1071.88 31.46 1072.41 31.32 1072.88 31.04C1073.35 30.76 1073.71 30.38 1073.98 29.9C1074.25 29.4067 1074.38 28.8467 1074.38 28.22C1074.38 27.6067 1074.24 27.06 1073.96 26.58C1073.69 26.1 1073.33 25.7267 1072.86 25.46C1072.41 25.18 1071.88 25.04 1071.28 25.04C1070.68 25.04 1070.15 25.18 1069.68 25.46C1069.21 25.7267 1068.85 26.1 1068.58 26.58C1068.31 27.06 1068.18 27.6067 1068.18 28.22C1068.18 28.8467 1068.31 29.4067 1068.58 29.9C1068.85 30.38 1069.21 30.76 1069.68 31.04C1070.15 31.32 1070.68 31.46 1071.28 31.46ZM1078.27 33V18.72H1080.07V33H1078.27ZM1086.74 33.2C1085.88 33.2 1085.09 32.9867 1084.38 32.56C1083.68 32.12 1083.12 31.5267 1082.7 30.78C1082.3 30.0333 1082.1 29.1933 1082.1 28.26C1082.1 27.3267 1082.3 26.4867 1082.7 25.74C1083.12 24.9933 1083.67 24.4 1084.36 23.96C1085.07 23.52 1085.86 23.3 1086.74 23.3C1087.46 23.3 1088.1 23.4533 1088.66 23.76C1089.24 24.0533 1089.7 24.4667 1090.04 25C1090.39 25.52 1090.58 26.1267 1090.62 26.82V29.68C1090.58 30.36 1090.39 30.9667 1090.04 31.5C1089.71 32.0333 1089.26 32.4533 1088.68 32.76C1088.12 33.0533 1087.48 33.2 1086.74 33.2ZM1087.04 31.5C1087.94 31.5 1088.66 31.2 1089.2 30.6C1089.75 29.9867 1090.02 29.2067 1090.02 28.26C1090.02 27.6067 1089.9 27.04 1089.64 26.56C1089.4 26.0667 1089.06 25.6867 1088.6 25.42C1088.15 25.14 1087.62 25 1087.02 25C1086.42 25 1085.89 25.14 1085.42 25.42C1084.97 25.7 1084.61 26.0867 1084.34 26.58C1084.09 27.06 1083.96 27.6133 1083.96 28.24C1083.96 28.88 1084.09 29.4467 1084.34 29.94C1084.61 30.42 1084.98 30.8 1085.44 31.08C1085.91 31.36 1086.44 31.5 1087.04 31.5ZM1089.9 33V30.44L1090.24 28.12L1089.9 25.82V23.5H1091.72V33H1089.9ZM1094.44 35.2L1095.68 32.82L1096.32 32.66C1096.26 32.8067 1096.17 32.9267 1096.06 33.02C1095.97 33.1133 1095.85 33.16 1095.7 33.16C1095.42 33.16 1095.16 33.0467 1094.92 32.82C1094.7 32.58 1094.58 32.2867 1094.58 31.94C1094.58 31.5533 1094.71 31.2333 1094.96 30.98C1095.22 30.7133 1095.54 30.58 1095.92 30.58C1096.27 30.58 1096.58 30.7133 1096.84 30.98C1097.11 31.2333 1097.24 31.5533 1097.24 31.94C1097.24 32.0867 1097.21 32.2667 1097.14 32.48C1097.09 32.68 1096.98 32.94 1096.8 33.26L1095.48 35.76L1094.44 35.2ZM1104.33 33V19.12H1106.21V33H1104.33ZM1115.89 33V27.46C1115.89 26.74 1115.66 26.1467 1115.21 25.68C1114.75 25.2133 1114.17 24.98 1113.45 24.98C1112.97 24.98 1112.54 25.0867 1112.17 25.3C1111.79 25.5133 1111.5 25.8067 1111.29 26.18C1111.07 26.5533 1110.97 26.98 1110.97 27.46L1110.23 27.04C1110.23 26.32 1110.39 25.68 1110.71 25.12C1111.03 24.56 1111.47 24.12 1112.05 23.8C1112.62 23.4667 1113.27 23.3 1113.99 23.3C1114.71 23.3 1115.34 23.48 1115.89 23.84C1116.45 24.2 1116.89 24.6733 1117.21 25.26C1117.53 25.8333 1117.69 26.4467 1117.69 27.1V33H1115.89ZM1109.17 33V23.5H1110.97V33H1109.17ZM1120.14 33V23.5H1121.94V33H1120.14ZM1121.04 21.6C1120.71 21.6 1120.44 21.4933 1120.22 21.28C1120.01 21.0533 1119.9 20.7733 1119.9 20.44C1119.9 20.12 1120.01 19.8533 1120.22 19.64C1120.44 19.4133 1120.71 19.3 1121.04 19.3C1121.38 19.3 1121.65 19.4133 1121.86 19.64C1122.08 19.8533 1122.18 20.12 1122.18 20.44C1122.18 20.7733 1122.08 21.0533 1121.86 21.28C1121.65 21.4933 1121.38 21.6 1121.04 21.6ZM1128.94 33.2C1128 33.2 1127.16 32.98 1126.4 32.54C1125.65 32.1 1125.06 31.5067 1124.62 30.76C1124.19 30 1123.98 29.16 1123.98 28.24C1123.98 27.3067 1124.19 26.4667 1124.62 25.72C1125.06 24.9733 1125.65 24.3867 1126.4 23.96C1127.16 23.52 1128 23.3 1128.94 23.3C1129.67 23.3 1130.35 23.44 1130.98 23.72C1131.6 23.9867 1132.14 24.38 1132.6 24.9L1131.4 26.1C1131.1 25.7533 1130.74 25.4933 1130.32 25.32C1129.9 25.1333 1129.44 25.04 1128.94 25.04C1128.34 25.04 1127.8 25.18 1127.34 25.46C1126.87 25.7267 1126.5 26.1 1126.24 26.58C1125.97 27.06 1125.84 27.6133 1125.84 28.24C1125.84 28.8667 1125.97 29.42 1126.24 29.9C1126.5 30.38 1126.87 30.76 1127.34 31.04C1127.8 31.32 1128.34 31.46 1128.94 31.46C1129.44 31.46 1129.9 31.3733 1130.32 31.2C1130.74 31.0133 1131.11 30.7467 1131.42 30.4L1132.6 31.6C1132.16 32.1067 1131.62 32.5 1130.98 32.78C1130.35 33.06 1129.67 33.2 1128.94 33.2ZM1134.4 33V23.5H1136.2V33H1134.4ZM1135.3 21.6C1134.97 21.6 1134.7 21.4933 1134.48 21.28C1134.27 21.0533 1134.16 20.7733 1134.16 20.44C1134.16 20.12 1134.27 19.8533 1134.48 19.64C1134.7 19.4133 1134.97 19.3 1135.3 19.3C1135.64 19.3 1135.91 19.4133 1136.12 19.64C1136.34 19.8533 1136.44 20.12 1136.44 20.44C1136.44 20.7733 1136.34 21.0533 1136.12 21.28C1135.91 21.4933 1135.64 21.6 1135.3 21.6ZM1142.9 33.2C1142.03 33.2 1141.24 32.9867 1140.54 32.56C1139.83 32.12 1139.27 31.5267 1138.86 30.78C1138.46 30.0333 1138.26 29.1933 1138.26 28.26C1138.26 27.3267 1138.46 26.4867 1138.86 25.74C1139.27 24.9933 1139.82 24.4 1140.52 23.96C1141.22 23.52 1142.02 23.3 1142.9 23.3C1143.62 23.3 1144.26 23.4533 1144.82 23.76C1145.39 24.0533 1145.85 24.4667 1146.2 25C1146.54 25.52 1146.74 26.1267 1146.78 26.82V29.68C1146.74 30.36 1146.54 30.9667 1146.2 31.5C1145.86 32.0333 1145.41 32.4533 1144.84 32.76C1144.28 33.0533 1143.63 33.2 1142.9 33.2ZM1143.2 31.5C1144.09 31.5 1144.81 31.2 1145.36 30.6C1145.9 29.9867 1146.18 29.2067 1146.18 28.26C1146.18 27.6067 1146.05 27.04 1145.8 26.56C1145.56 26.0667 1145.21 25.6867 1144.76 25.42C1144.3 25.14 1143.78 25 1143.18 25C1142.58 25 1142.04 25.14 1141.58 25.42C1141.12 25.7 1140.76 26.0867 1140.5 26.58C1140.24 27.06 1140.12 27.6133 1140.12 28.24C1140.12 28.88 1140.24 29.4467 1140.5 29.94C1140.76 30.42 1141.13 30.8 1141.6 31.08C1142.06 31.36 1142.6 31.5 1143.2 31.5ZM1146.06 33V30.44L1146.4 28.12L1146.06 25.82V23.5H1147.88V33H1146.06ZM1158.84 33.2C1157.74 33.2 1156.81 33 1156.04 32.6C1155.26 32.2 1154.58 31.62 1153.98 30.86L1155.26 29.58C1155.7 30.1933 1156.2 30.66 1156.78 30.98C1157.35 31.2867 1158.06 31.44 1158.9 31.44C1159.72 31.44 1160.38 31.26 1160.88 30.9C1161.38 30.54 1161.64 30.0467 1161.64 29.42C1161.64 28.9 1161.52 28.48 1161.28 28.16C1161.04 27.84 1160.71 27.58 1160.3 27.38C1159.9 27.1667 1159.46 26.98 1158.98 26.82C1158.5 26.6467 1158.02 26.4667 1157.54 26.28C1157.06 26.08 1156.62 25.84 1156.22 25.56C1155.82 25.2667 1155.49 24.8867 1155.24 24.42C1155 23.9533 1154.88 23.3667 1154.88 22.66C1154.88 21.8733 1155.06 21.2067 1155.44 20.66C1155.82 20.1 1156.34 19.6733 1157 19.38C1157.66 19.0733 1158.41 18.92 1159.24 18.92C1160.14 18.92 1160.96 19.1 1161.68 19.46C1162.4 19.8067 1162.98 20.2667 1163.44 20.84L1162.16 22.12C1161.74 21.64 1161.3 21.28 1160.82 21.04C1160.35 20.8 1159.81 20.68 1159.2 20.68C1158.45 20.68 1157.86 20.8467 1157.42 21.18C1156.98 21.5 1156.76 21.9533 1156.76 22.54C1156.76 23.0067 1156.88 23.3867 1157.12 23.68C1157.37 23.96 1157.7 24.2 1158.1 24.4C1158.5 24.6 1158.94 24.7867 1159.42 24.96C1159.91 25.12 1160.4 25.3 1160.88 25.5C1161.36 25.7 1161.8 25.9533 1162.2 26.26C1162.6 26.5667 1162.92 26.9667 1163.16 27.46C1163.41 27.94 1163.54 28.5467 1163.54 29.28C1163.54 30.5067 1163.11 31.4667 1162.26 32.16C1161.42 32.8533 1160.28 33.2 1158.84 33.2ZM1170.01 33.2C1169.07 33.2 1168.21 32.9867 1167.45 32.56C1166.69 32.12 1166.09 31.5267 1165.65 30.78C1165.21 30.0333 1164.99 29.1867 1164.99 28.24C1164.99 27.3067 1165.21 26.4667 1165.63 25.72C1166.07 24.9733 1166.66 24.3867 1167.39 23.96C1168.14 23.52 1168.97 23.3 1169.89 23.3C1170.77 23.3 1171.55 23.5 1172.21 23.9C1172.89 24.3 1173.42 24.8533 1173.79 25.56C1174.18 26.2667 1174.37 27.0667 1174.37 27.96C1174.37 28.0933 1174.37 28.24 1174.35 28.4C1174.34 28.5467 1174.31 28.72 1174.27 28.92H1166.25V27.42H1173.31L1172.65 28C1172.65 27.36 1172.54 26.82 1172.31 26.38C1172.09 25.9267 1171.77 25.58 1171.35 25.34C1170.94 25.0867 1170.44 24.96 1169.85 24.96C1169.24 24.96 1168.7 25.0933 1168.23 25.36C1167.77 25.6267 1167.41 26 1167.15 26.48C1166.9 26.96 1166.77 27.5267 1166.77 28.18C1166.77 28.8467 1166.91 29.4333 1167.17 29.94C1167.44 30.4333 1167.82 30.82 1168.31 31.1C1168.81 31.3667 1169.37 31.5 1170.01 31.5C1170.55 31.5 1171.03 31.4067 1171.47 31.22C1171.93 31.0333 1172.31 30.7533 1172.63 30.38L1173.79 31.56C1173.34 32.0933 1172.78 32.5 1172.11 32.78C1171.46 33.06 1170.76 33.2 1170.01 33.2ZM1179.36 33.2C1178.82 33.2 1178.32 33.1333 1177.84 33C1177.37 32.8533 1176.94 32.6533 1176.54 32.4C1176.14 32.1333 1175.79 31.82 1175.5 31.46L1176.66 30.3C1177 30.7267 1177.4 31.0467 1177.86 31.26C1178.31 31.46 1178.82 31.56 1179.38 31.56C1179.94 31.56 1180.37 31.4667 1180.68 31.28C1180.98 31.08 1181.14 30.8067 1181.14 30.46C1181.14 30.1133 1181.01 29.8467 1180.76 29.66C1180.52 29.46 1180.2 29.3 1179.82 29.18C1179.43 29.0467 1179.02 28.92 1178.58 28.8C1178.15 28.6667 1177.74 28.5 1177.36 28.3C1176.97 28.1 1176.65 27.8267 1176.4 27.48C1176.16 27.1333 1176.04 26.6733 1176.04 26.1C1176.04 25.5267 1176.18 25.0333 1176.46 24.62C1176.74 24.1933 1177.12 23.8667 1177.62 23.64C1178.12 23.4133 1178.73 23.3 1179.44 23.3C1180.18 23.3 1180.84 23.4333 1181.42 23.7C1182 23.9533 1182.48 24.34 1182.86 24.86L1181.7 26.02C1181.43 25.6733 1181.1 25.4067 1180.7 25.22C1180.31 25.0333 1179.87 24.94 1179.38 24.94C1178.86 24.94 1178.46 25.0333 1178.18 25.22C1177.91 25.3933 1177.78 25.64 1177.78 25.96C1177.78 26.28 1177.9 26.5267 1178.14 26.7C1178.38 26.8733 1178.69 27.02 1179.08 27.14C1179.48 27.26 1179.89 27.3867 1180.32 27.52C1180.74 27.64 1181.15 27.8067 1181.54 28.02C1181.92 28.2333 1182.24 28.52 1182.48 28.88C1182.73 29.24 1182.86 29.7133 1182.86 30.3C1182.86 31.1933 1182.54 31.9 1181.9 32.42C1181.27 32.94 1180.42 33.2 1179.36 33.2ZM1184.89 33V23.5H1186.69V33H1184.89ZM1185.79 21.6C1185.46 21.6 1185.18 21.4933 1184.97 21.28C1184.76 21.0533 1184.65 20.7733 1184.65 20.44C1184.65 20.12 1184.76 19.8533 1184.97 19.64C1185.18 19.4133 1185.46 19.3 1185.79 19.3C1186.12 19.3 1186.4 19.4133 1186.61 19.64C1186.82 19.8533 1186.93 20.12 1186.93 20.44C1186.93 20.7733 1186.82 21.0533 1186.61 21.28C1186.4 21.4933 1186.12 21.6 1185.79 21.6ZM1193.68 33.2C1192.75 33.2 1191.91 32.98 1191.16 32.54C1190.42 32.1 1189.82 31.5067 1189.38 30.76C1188.94 30 1188.72 29.1533 1188.72 28.22C1188.72 27.3 1188.94 26.4733 1189.38 25.74C1189.82 24.9933 1190.42 24.4 1191.16 23.96C1191.91 23.52 1192.75 23.3 1193.68 23.3C1194.6 23.3 1195.44 23.52 1196.18 23.96C1196.94 24.3867 1197.54 24.9733 1197.98 25.72C1198.42 26.4667 1198.64 27.3 1198.64 28.22C1198.64 29.1533 1198.42 30 1197.98 30.76C1197.54 31.5067 1196.94 32.1 1196.18 32.54C1195.44 32.98 1194.6 33.2 1193.68 33.2ZM1193.68 31.46C1194.28 31.46 1194.82 31.32 1195.28 31.04C1195.75 30.76 1196.12 30.38 1196.38 29.9C1196.65 29.4067 1196.78 28.8467 1196.78 28.22C1196.78 27.6067 1196.64 27.06 1196.36 26.58C1196.1 26.1 1195.73 25.7267 1195.26 25.46C1194.81 25.18 1194.28 25.04 1193.68 25.04C1193.08 25.04 1192.55 25.18 1192.08 25.46C1191.62 25.7267 1191.25 26.1 1190.98 26.58C1190.72 27.06 1190.58 27.6067 1190.58 28.22C1190.58 28.8467 1190.72 29.4067 1190.98 29.9C1191.25 30.38 1191.62 30.76 1192.08 31.04C1192.55 31.32 1193.08 31.46 1193.68 31.46ZM1192.5 22.08L1191.68 21.26L1194.28 18.04L1195.7 19.46L1192.5 22.08ZM1207.39 33V27.46C1207.39 26.74 1207.16 26.1467 1206.71 25.68C1206.26 25.2133 1205.67 24.98 1204.95 24.98C1204.47 24.98 1204.04 25.0867 1203.67 25.3C1203.3 25.5133 1203 25.8067 1202.79 26.18C1202.58 26.5533 1202.47 26.98 1202.47 27.46L1201.73 27.04C1201.73 26.32 1201.89 25.68 1202.21 25.12C1202.53 24.56 1202.98 24.12 1203.55 23.8C1204.12 23.4667 1204.77 23.3 1205.49 23.3C1206.21 23.3 1206.84 23.48 1207.39 23.84C1207.95 24.2 1208.39 24.6733 1208.71 25.26C1209.03 25.8333 1209.19 26.4467 1209.19 27.1V33H1207.39ZM1200.67 33V23.5H1202.47V33H1200.67Z" fill="black"/>
<path d="M1226.5 22.2031L1233.25 29.7969L1240 22.2031" stroke="black" stroke-width="6" stroke-linecap="round" stroke-linejoin="round"/>
</svg>
